<svg width="411" height="514" xmlns="http://www.w3.org/2000/svg" xmlns:xlink="http://www.w3.org/1999/xlink" xml:space="preserve" overflow="hidden"><defs><clipPath id="clip0"><path d="M971.49 243.315 1322.85 287.338 1264.13 756.033 912.766 712.01Z" fill-rule="evenodd" clip-rule="evenodd"/></clipPath><clipPath id="clip1"><path d="M971.49 243.315 1322.85 287.338 1264.13 756.033 912.766 712.01Z" fill-rule="evenodd" clip-rule="evenodd"/></clipPath><clipPath id="clip2"><path d="M971.49 243.315 1322.85 287.338 1264.13 756.033 912.766 712.01Z" fill-rule="evenodd" clip-rule="evenodd"/></clipPath></defs><g transform="translate(-912 -243)"><g clip-path="url(#clip0)"><g clip-path="url(#clip1)"><g clip-path="url(#clip2)"><path d="M193.059 440.685C192.73 440.494 190.88 433.717 190.223 430.345 189.912 428.651 189.687 428.201 189.134 428.132 188.097 428.011 188.01 429.135 188.806 432.143 189.082 433.198 189.584 435.117 189.912 436.397 190.241 437.676 190.673 439.18 190.863 439.734L191.209 440.719 189.86 440.719C189.065 440.719 188.408 440.633 188.235 440.494 187.716 440.131 187.111 438.091 186.316 434.097 185.901 431.988 185.503 429.878 185.434 429.394 185.278 428.305 184.933 427.752 184.414 427.752 183.74 427.752 183.549 428.149 183.67 429.36 183.826 431.037 185.278 438.126 185.711 439.232 185.901 439.785 186.022 440.27 185.97 440.321 185.918 440.373 185.227 440.356 184.448 440.27L183.013 440.114 182.547 438.765C182.028 437.296 181.198 433.198 180.748 429.999 180.472 427.907 180.195 427.233 179.642 427.233 178.985 427.233 178.726 427.734 178.829 428.772 179.123 431.607 180.126 436.863 180.697 438.61 180.904 439.215 181.025 439.734 180.973 439.785 180.869 439.889 178.12 439.422 177.982 439.284 177.775 439.094 177.066 436.016 176.616 433.44 175.752 428.512 175.527 427.319 175.406 427.026 175.25 426.628 174.714 426.472 174.282 426.714 173.798 426.974 173.815 428.011 174.351 430.812 174.593 432.04 174.939 433.924 175.147 435.013 175.337 436.103 175.631 437.417 175.769 437.935 175.907 438.437 176.011 438.886 175.976 438.921 175.925 438.956 175.25 438.852 173.971 438.558 173.711 438.489 173.469 438.212 173.262 437.728 172.795 436.621 171.187 429.377 170.893 427.095 170.772 426.023 170.253 425.504 169.631 425.833 169.164 426.092 169.043 426.541 169.182 427.717 169.32 428.91 170.72 435.549 171.083 436.794 171.222 437.261 171.308 437.711 171.256 437.745 171.135 437.866 168.991 437.261 168.68 437.036 168.092 436.57 166.415 429.533 166.208 426.628 166.069 424.743 165.568 424.19 164.755 425.003 164.41 425.348 164.392 425.504 164.496 426.835 164.617 428.495 165.447 432.524 166.069 434.598 166.571 436.224 166.571 436.224 166.311 436.224 165.966 436.224 163.251 434.892 162.629 434.408 161.678 433.682 161.453 433.198 160.779 430.086 159.793 425.711 158.652 419.971 158.738 419.902 158.773 419.867 161.28 420.334 164.323 420.939 168.282 421.735 169.908 421.994 170.15 421.873 170.599 421.631 170.72 421.061 170.426 420.594 170.184 420.231 169.631 420.092 165.17 419.21 162.438 418.674 159.759 418.173 159.24 418.104L158.306 417.983 157.995 416.513C157.839 415.701 157.701 414.836 157.684 414.594L157.684 414.145 161.297 415.061C163.286 415.58 165.62 416.064 166.502 416.167 167.383 416.271 168.179 416.392 168.265 416.444 168.559 416.634 169.268 415.995 169.268 415.562 169.268 414.94 168.611 414.594 167.055 414.387 165.896 414.248 159.828 412.882 157.978 412.364 157.217 412.139 157.234 412.174 156.923 410.41L156.698 409.044 157.148 409.165C159.153 409.666 166.865 411.153 167.487 411.153 167.608 411.153 167.833 410.963 167.988 410.721 168.248 410.323 168.248 410.254 168.006 409.874 167.781 409.545 167.435 409.424 166.121 409.182 161.643 408.352 157.373 407.471 156.888 407.263 156.37 407.056 156.352 407.004 156.041 404.946 155.868 403.805 155.747 402.82 155.799 402.785 155.834 402.751 156.266 402.82 156.767 402.941 157.943 403.252 164.876 404.618 166.64 404.877 167.297 404.981 167.712 404.704 167.712 404.134 167.712 403.356 167.02 403.027 164.686 402.664 162.681 402.37 155.713 400.935 155.574 400.797 155.453 400.693 154.917 397.149 154.917 396.526 154.917 396.371 155.229 396.44 155.92 396.716 157.096 397.183 158.064 397.443 162.438 398.463 165.43 399.137 165.758 399.189 166.104 398.947 166.571 398.653 166.623 397.996 166.208 397.65 166.035 397.512 165.36 397.27 164.686 397.114 158.099 395.558 155.229 394.728 154.71 394.227 154.589 394.123 154.018 390.717 154.122 390.63 154.139 390.613 154.779 390.769 155.54 391.011 157.77 391.685 165.43 393.691 165.793 393.691 166.519 393.691 166.899 392.861 166.467 392.256 166.26 391.996 158.583 389.835 154.831 388.988L153.811 388.763 152.894 382.798C151.425 373.254 151.338 371.093 152.255 369.295 152.566 368.672 153.413 367.687 154.796 366.321 155.937 365.197 156.888 364.315 156.923 364.35 156.958 364.384 156.594 365.266 156.128 366.338 154.606 369.744 154.26 372.044 154.554 376.66 154.693 378.908 155.35 383.317 155.868 385.53 155.972 385.945 156.456 386.031 156.785 385.703 157.079 385.409 157.044 383.749 156.664 380.983 156.162 377.317 156.041 373.392 156.387 371.473 156.785 369.225 157.805 366.857 159.776 363.606 161.678 360.442 161.28 360.84 165.637 357.866 170.686 354.443 172.536 353.405 175.406 352.437 177.965 351.555 177.999 351.538 177.982 351.054 177.965 350.777 177.896 348.218 177.826 345.365 177.74 341.181 177.757 340.092 177.947 339.746 178.172 339.349 178.293 339.314 179.728 339.228L181.284 339.141 181.336 338.415 181.388 337.671 179.521 337.671C177.533 337.671 176.201 337.36 175.492 336.72 175.008 336.271 175.025 334.888 175.544 333.868 176.115 332.692 176.685 332.484 179.227 332.484L181.336 332.484 181.44 316.716C181.492 308.037 181.699 240.174 181.89 165.896 182.08 91.6364 182.287 23.9119 182.339 15.4399L182.443 0 188.304 0 194.148 0 194.062 13.1749C193.992 23.9984 192.886 282.811 192.748 321.765L192.713 333.09 194.701 333.366C197.986 333.816 198.747 334.231 199.283 335.804 199.594 336.772 199.491 338.207 199.058 338.57 198.73 338.83 197.105 338.864 194.477 338.64L192.609 338.484 192.609 339.037C192.609 339.331 192.627 339.573 192.661 339.573 192.696 339.573 193.163 339.66 193.716 339.763 194.511 339.902 194.857 340.075 195.41 340.628L196.119 341.32 195.929 345.832C195.808 348.322 195.739 350.379 195.773 350.397 195.912 350.552 198.453 350.829 201.168 350.985 205.801 351.261 208.412 351.694 210.452 352.541 210.902 352.731 211.438 352.887 211.628 352.887 212.354 352.887 213.409 353.665 214.412 354.961 214.965 355.67 215.726 356.656 216.106 357.123 217.023 358.298 217.61 359.543 217.749 360.581 217.939 362.016 218.7 368.05 218.976 370.349 219.115 371.542 219.357 373.686 219.495 375.104 219.633 376.539 219.789 377.974 219.841 378.303 219.893 378.631 219.996 379.72 220.1 380.723 220.187 381.726 220.446 384.492 220.688 386.861 220.93 389.247 221.207 392.774 221.311 394.728 221.483 398.03 221.968 406.226 222.348 412.277 222.434 413.712 222.521 416.271 222.521 418 222.521 423.723 222.21 424.432 218.129 427.665 215.518 429.74 215.121 430.034 210.331 433.596 206.165 436.673 205.335 437.227 202.568 438.627 199.888 439.993 199.283 440.235 197.986 440.46 196.309 440.736 193.387 440.875 193.059 440.685ZM192.142 423.239C195.566 422.72 199.249 421.441 202.24 419.695 203.45 418.968 204.851 418.208 205.352 417.983 206.631 417.378 206.977 416.461 206.078 415.995 205.663 415.753 205.058 416.012 201.738 417.862 196.223 420.905 191.364 421.977 186.039 421.285 184.846 421.13 182.529 420.974 180.887 420.922 177.913 420.836 177.896 420.836 177.757 421.233 177.671 421.441 177.671 421.769 177.74 421.96 177.965 422.599 178.691 422.772 182.045 422.928 183.809 423.014 185.659 423.153 186.126 423.239 187.388 423.464 190.707 423.464 192.142 423.239ZM192.869 417.845C197.018 416.531 200.251 415.286 202.378 414.214 203.709 413.522 205.058 412.865 205.369 412.744 206.407 412.312 206.649 410.998 205.732 410.721 205.369 410.6 204.712 410.859 202.551 411.966 202.084 412.208 201.099 412.692 200.39 413.055 198.764 413.885 192.575 415.977 191.157 416.167 189.169 416.461 182.823 416.41 181.129 416.098 179.106 415.735 177.169 415.735 176.806 416.098 176.097 416.79 176.599 417.17 178.639 417.464 179.521 417.603 180.714 417.827 181.284 417.966 182.771 418.346 191.606 418.242 192.869 417.845ZM187.249 412.295C187.682 412.243 188.84 411.983 189.843 411.689 190.846 411.413 192.246 411.084 192.955 410.98 194.857 410.704 198.021 409.58 201.254 408.041 202.828 407.298 204.28 406.641 204.505 406.572 204.712 406.52 205.127 406.26 205.404 406.018 206.234 405.327 206.044 404.237 205.093 404.237 204.868 404.237 203.156 404.964 201.289 405.863 197.52 407.678 194.407 408.802 192.436 409.079 191.728 409.182 190.292 409.511 189.238 409.822 187.336 410.375 187.319 410.375 183.532 410.358 180.316 410.358 179.452 410.289 177.965 409.978 175.804 409.511 175.907 409.511 175.579 410.012 174.749 411.274 177.066 412.156 181.717 412.346 184.379 412.45 185.745 412.433 187.249 412.295ZM187.647 406.917C189.013 406.693 190.673 406.364 191.313 406.226 192.678 405.897 197.502 404.186 199.214 403.408 200.891 402.647 205.3 400.243 205.438 400.019 205.663 399.69 205.594 398.929 205.317 398.705 204.92 398.376 204.228 398.601 202.257 399.673 199.664 401.125 197.589 402.076 195.082 402.975 191.97 404.082 190.535 404.462 187.111 405.033 184.241 405.5 184.051 405.517 181.924 405.309 177.619 404.894 176.288 404.756 176.011 404.67 175.838 404.618 175.527 404.722 175.319 404.894 175.008 405.137 174.939 405.327 175.043 405.673 175.216 406.399 175.976 406.658 178.656 406.935 180.005 407.073 181.233 407.211 181.371 407.246 182.27 407.471 185.399 407.315 187.647 406.917ZM188.512 401.298C192.281 400.607 194.598 399.777 200.009 397.131 204.297 395.039 204.626 394.814 204.401 393.985 204.349 393.812 204.142 393.587 203.934 393.483 203.623 393.345 203.087 393.535 200.718 394.693 194.027 397.979 192.16 398.687 188.46 399.396 186.61 399.742 186.281 399.759 183.964 399.586 182.581 399.483 180.921 399.362 180.247 399.327 179.59 399.275 177.999 399.068 176.737 398.86 174.662 398.514 174.403 398.514 174.161 398.739 173.037 399.88 176.391 400.987 181.959 401.315 183.584 401.402 184.933 401.523 184.984 401.558 185.157 401.748 186.765 401.627 188.512 401.298ZM189.635 395.402C192.004 394.918 193.647 394.313 196.24 392.964 197.52 392.29 199.629 391.201 200.908 390.544 202.188 389.87 203.381 389.213 203.554 389.057 203.9 388.763 203.951 387.985 203.64 387.674 203.26 387.293 202.758 387.466 200.217 388.78 192.367 392.878 192.056 393.016 189.065 393.57 187.007 393.967 185.261 394.054 183.619 393.864 182.806 393.76 180.679 393.604 178.864 393.535 176.772 393.431 175.268 393.276 174.732 393.103 173.694 392.792 173.193 392.964 173.279 393.639 173.4 394.711 174.939 395.178 179.21 395.437 180.921 395.541 182.823 395.679 183.446 395.748 185.019 395.938 187.734 395.783 189.635 395.402ZM184.742 389.368C185.019 389.057 185.019 388.849 184.829 386.394 184.725 384.942 184.518 383.057 184.379 382.193 184.241 381.346 184.085 379.271 184.034 377.611L183.93 374.585 184.725 373.289C187.128 369.381 187.751 368.62 189.756 367.116 191.987 365.439 192.436 364.972 192.436 364.315 192.436 363.295 191.555 363.139 190.586 364.004 190.223 364.332 189.342 365.024 188.633 365.543 186.8 366.909 185.935 367.877 184.327 370.401 182.132 373.807 182.149 373.773 182.183 376.833 182.201 378.545 182.356 380.55 182.668 382.712 183.532 388.953 183.584 389.264 183.895 389.489 184.293 389.783 184.379 389.766 184.742 389.368ZM180.126 387.622C180.161 386.844 180.057 384.786 179.901 383.075 179.486 378.251 179.4 375.588 179.625 374.516 179.849 373.479 180.714 371.663 181.682 370.194 182.27 369.329 187.007 364.471 187.284 364.471 187.353 364.471 187.526 364.246 187.682 363.952 187.993 363.364 187.768 362.638 187.215 362.465 186.679 362.309 185.918 362.932 183.1 365.802 181.025 367.911 180.23 368.862 179.555 370.003 177.325 373.825 177.256 374.775 178.328 385.288 178.656 388.504 178.76 389.109 179.037 389.299 179.313 389.506 179.417 389.506 179.711 389.299 180.022 389.109 180.074 388.867 180.126 387.622ZM169.96 388.919C170.081 388.625 170.081 387.985 169.96 387.051 169.631 384.32 169.268 375.934 169.441 374.966 169.735 373.41 171.014 371.075 172.985 368.482 174.662 366.252 175.406 365.474 177.377 363.762 178.224 363.036 178.328 362.396 177.654 361.946 177.256 361.687 177.187 361.687 176.495 362.102 175.319 362.811 173.469 364.73 171.619 367.133 168.818 370.799 167.746 372.977 167.591 375.363 167.401 378.216 168.248 388.071 168.767 389.074 169.026 389.541 169.769 389.455 169.96 388.919ZM174.939 388.832C175.216 388.331 175.112 385.564 174.714 382.452 174.317 379.34 174.196 375.744 174.455 374.931 175.319 372.217 177.878 368.465 180.8 365.577 182.426 363.987 182.927 363.364 182.927 363.036 182.927 362.517 182.512 362.05 182.062 362.05 181.89 362.05 180.766 363.018 179.521 364.263 176.945 366.805 174.904 369.606 173.521 372.424L172.639 374.24 172.588 376.764C172.536 379.236 172.657 380.602 173.625 387.518 173.867 389.316 174.403 389.835 174.939 388.832ZM164.911 387.605C165.188 387.328 165.17 386.066 164.859 383.092 164.721 381.743 164.582 378.96 164.565 376.919L164.513 373.202 165.17 371.888C166.277 369.675 168.092 367.375 171.222 364.246 172.674 362.776 173.072 362.292 173.072 361.912 173.072 361.341 172.795 361.013 172.311 361.013 171.844 361.013 168.507 364.281 166.381 366.788 164.652 368.828 163.407 370.972 162.957 372.701 162.663 373.859 162.629 376.332 162.871 379.945 163.044 382.746 163.631 386.948 163.908 387.466 164.116 387.847 164.6 387.916 164.911 387.605ZM161.142 386.948C161.263 386.706 161.228 385.755 160.986 383.541 160.104 375.554 160.07 373.358 160.865 370.989 161.833 368.119 163.58 365.543 165.896 363.606 166.692 362.949 167.401 362.24 167.453 362.05 167.608 361.583 167.124 360.84 166.674 360.84 166.294 360.84 164.098 362.552 163.199 363.554 160.986 366.01 159.413 369.001 158.808 371.94 158.496 373.358 158.479 376.314 158.738 379.219 159.032 382.435 159.689 386.74 159.931 387.034 160.243 387.397 160.917 387.363 161.142 386.948Z" transform="matrix(0.992242 0.124321 0.124321 -0.992242 912.771 712.011)"/><path d="M193.318 300.222C193.318 300.031 193.37 299.979 193.422 300.118 193.474 300.239 193.456 300.394 193.405 300.446 193.353 300.515 193.301 300.412 193.318 300.222Z" transform="matrix(0.992242 0.124321 0.124321 -0.992242 912.771 712.011)"/></g></g></g></g></svg>